<?xml version="1.0" encoding="UTF-8"?>
<svg version="1.1" viewBox="0 0 1952 1560" width="488" height="390" xmlns="http://www.w3.org/2000/svg">
<path transform="translate(0)" d="m0 0h1952v1560h-1952z"/>
<path transform="translate(1106,297)" d="m0 0 3 1v201l30-12 34-14 33-13 22-9 28-11 42-17 35-14 28-11 6-2 1 1v337l-2 2-35 11-21 5-21 3h-35l-27-4-21-6-19-7-20-10-22-14-11-9-12-11-14-14-13-17-10-16-10-18-10-30-5-21v-2l-21 9-33 13-65 26-29 12-32 13-7 5-5 11v15l4 8 4 4v2l6 2 125 51 30 12 81 33 30 12 69 28 26 11 20 11 15 10 16 13 11 10 7 8 9 10 12 17 9 15 10 21 9 27 5 25 1 9v44l-4 26-6 21-7 19-8 16-11 19-14 19-12 13-10 10-11 9-11 8-21 12-29 14-36 16-24 11-29 13-33 15-29 13-27 12-35 16-23 10-35 16-65 29-47 21-5 2-1-50 1-153-29 12-22 9-27 11-38 15-32 13-105 42-6 1v-338l7-3 27-9 21-5 21-3h39l27 4 24 7 17 7 21 11 19 12 13 11 14 12 11 12 14 19 12 21 9 19 8 24 4 19 29-11 21-9 27-11 85-34 18-8 6-4 5-9 1-4v-12l-3-8-5-6-22-10-111-45-24-10-74-30-32-13-86-35-25-11-19-11-17-12-11-10-6-5-7-8-11-12-12-17-9-15-11-23-8-25-5-23-2-19v-29l2-20 6-26 6-18 8-19 14-24 8-11 10-13 23-23 13-10 15-10 27-14 42-19 29-13 63-28 14-7 30-13 42-19 30-13 30-14 65-29 27-12z" fill="#FCFCFC"/>
<path transform="translate(1054,378)" d="m0 0h3v143l-12 5-28 11-26 10-36 15-32 13-28 11-34 14-16 9-10 9-9 13-6 12-4 14-1 7v16l4 18 8 16 7 9 7 8 14 10 17 8 65 26 87 35 29 12 42 17 27 11 30 12 27 11 34 14 17 8 17 11 8 6 13 12 11 12 12 17 9 16 7 18 5 18 3 20v35l-3 18-7 24-12 25-9 13-8 10-9 10-9 9-15 11-15 9-23 11-19 8-15 7-33 15-38 17-36 16-33 15-36 16-35 16-36 16-33 15-4 1v-145l28-10 27-11 28-11 66-27 31-12 21-9 12-8 12-12 8-13 6-15 2-10 1-13-2-15-4-13-6-12-8-10-7-8-15-10-15-7-34-14-70-28-47-19-29-12-37-15-30-12-39-16-30-12-29-12-21-11-17-12-12-11-11-12-11-15-10-18-8-18-6-23-3-23v-19l2-19 5-20 6-17 8-16 8-13 10-13 4-4 2-4 5-4 5-5 8-7 14-10 14-8 21-10 21-9 71-32 36-16 22-10 15-7 65-29 62-28 20-9z"/>
<path transform="translate(1106,297)" d="m0 0 3 1v147l-3 2-10 3-29 12-7 3-2 4v-91l-10 4-29 13-33 15-87 39-9 4-71 32-51 23-16 7-27 12-17 9-10 7-13 10-5 4-5 6-2 1-3 5-7 8-9 13-9 16-7 17-6 22-2 12-1 12v19l3 23 6 23 8 18 10 18 12 16 15 16 14 11 16 10 23 11 50 20 39 16 30 12 27 11 35 14 12 5 39 16 30 12 57 23 24 10 13 7 12 9 9 10 8 12 5 12 3 13 1 12-2 16-4 13-7 14-7 9-11 11-13 8-32 13-30 12-37 15-30 12-17 7h-4v-25l5 5 10 9-6-7-8-8-2-4-2-19v-5l8-4 105-42 18-8 6-4 5-9 1-4v-12l-3-8-5-6-22-10-111-45-24-10-74-30-32-13-86-35-25-11-19-11-17-12-11-10-6-5-7-8-11-12-12-17-9-15-11-23-8-25-5-23-2-19v-29l2-20 6-26 6-18 8-19 14-24 8-11 10-13 23-23 13-10 15-10 27-14 42-19 29-13 63-28 14-7 30-13 42-19 30-13 30-14 65-29 27-12z" fill="#FCFCFC"/>
<path transform="translate(654,1017)" d="m0 0h33l19 3 15 4 17 7 19 10 14 10 9 7 15 15 11 14 8 13 8 16 6 17 5 21 1 11-8 4-27 10-15 6-118 47-27 11-8 3h-3v-222l3-3z"/>
<path transform="translate(1313,473)" d="m0 0h3v44l-1 181-21 4-9 1h-24l-22-3-16-4-17-7-16-8-12-8-13-10-16-16-11-14-9-14-8-16-7-21-4-18-1-8 10-5 30-12 32-13 92-37 30-12z"/>
<path transform="translate(1057,378)" d="m0 0h1l1 87 10-5 32-13 7-2v56l-36 15-11 4-4 1z" fill="#C0C0C0"/>
<path transform="translate(932,1124)" d="m0 0h1l3 24 4 6 12 12-1 2-13-12-1-2v25l-33 13-15 5h-2l-1-3-3-46v-5l9-3 21-8 14-6z" fill="#C0C0C0"/>
<path transform="translate(830,1168)" d="m0 0h2v3h2l1 18v31l-29 12-18 7-3-1-1-2v-52l23-9 7-1z" fill="#C0C0C0"/>
<path transform="translate(1106,556)" d="m0 0 4 1 3 16 5 19 4 11-1 3-27 12-18 6-2 2-9-27-5-21-1-3 38-15z" fill="#C0C0C0"/>
<path transform="translate(911,592)" d="m0 0 2 1-16 16-8 7-25 25-8 7-7 8-6 5-6 7-8 7-6 5 2-4 65-65 8-7z" fill="#C0C0C0"/>
<path transform="translate(1117,1041)" d="m0 0v3l-27 27-1 2h-2l-2 4-15 14-40 40v-3z" fill="#C0C0C0"/>
<path transform="translate(874,1283)" d="m0 0 1 2-8 10-19 19-7 5 2-4 17-17 1-2h2v-2h2l2-4z" fill="#C0C0C0"/>
<path transform="translate(1103,399)" d="m0 0v3l-14 15-21 21-2-1 7-8 7-6 7-8z" fill="#C0C0C0"/>
<path transform="translate(992,550)" d="m0 0 7 6v2h2l9 11 10 10 6 5h-3l-11-9-16-17-4-6z" fill="#C0C0C0"/>
<path transform="translate(915,914)" d="m0 0h3l-2 4-10 9-16 16-4 1 6-7z" fill="#C0C0C0"/>
<path transform="translate(644,529)" d="m0 0 2 1-1 2h2l7 8 12 13 4 5-1 2-11-12-13-13-3-1-2 4-5 4 2-4 5-6v-2z" fill="#C0C0C0"/>
<path transform="translate(585,1128)" d="m0 0 7 6 6 6v2l3 1 7 8 5 4 7 8 3 5-3-1-7-8-25-25-3-4z" fill="#C0C0C0"/>
<path transform="translate(1226,459)" d="m0 0 4 2 28 28v2l-4-2-1-3-4-2-22-22z" fill="#C0C0C0"/>
<path transform="translate(1319,551)" d="m0 0 4 2 11 11 7 8 17 17-1 2-33-33z" fill="#C0C0C0"/>
<path transform="translate(685,1229)" d="m0 0 4 2 28 28h-3l-15-14-11-11z" fill="#C0C0C0"/>
<path transform="translate(622,1207)" d="m0 0v3l-7 7-7 8-18 18-2 1 2-4 14-14 7-8z" fill="#C0C0C0"/>
<path transform="translate(1357,472)" d="m0 0v3l-4 5h-2l-2 4-7 7-1 2h-2l-2 4-8 8-2-1 3-4h2l2-4 12-12 1-2h2l2-4z" fill="#C0C0C0"/>
<path transform="translate(1058,774)" d="m0 0 2 1-16 15-13 12-5 3 2-4 10-9 8-8 11-9z" fill="#C0C0C0"/>
<path transform="translate(1274,1162)" d="m0 0 7 6 12 11 9 8v2l-4-1-4-5-2-1v-2l-4-2-14-14z" fill="#BDBDBD"/>
<path transform="translate(837,1381)" d="m0 0 5 2 14 14 4 5-5-2-18-18z" fill="#C0C0C0"/>
<path transform="translate(1082,316)" d="m0 0 5 3 16 16h-3l-9-9-7-5z" fill="#C0C0C0"/>
<path transform="translate(1162,668)" d="m0 0v3l-17 17v-3l7-7 7-8z" fill="#C0C0C0"/>
<path transform="translate(808,1022)" d="m0 0 1 2-20 20v-3l16-16z" fill="#B3B3B3"/>
<path transform="translate(1319,551)" d="m0 0 4 2 9 9v2l-4-2-9-10z" fill="#B4B4B4"/>
</svg>
