<?xml version="1.0" encoding="UTF-8"?>
<svg version="1.1" viewBox="0 0 2048 2048" width="4252" height="4252" xmlns="http://www.w3.org/2000/svg">
<path transform="translate(0)" d="m0 0h2048v2048h-2048z" fill="#FFFEFE"/>
<path transform="translate(1018,404)" d="m0 0h14l14 3 17 8 21 13 17 12 14 11 11 10 8 7 10 10 7 8 12 15 12 17 12 21 11 23 9 25 6 21 5 26 3 27v44l-3 26-3 14-2-3-5-16-9-17-11-13-13-9-11-5-11-3-7-1h-22l-18 3-21 6-24 10-24 12-27 16-21 14-14 10-17 13-13 11-11 9-17 16-23 23-7 8-9 10-11 14-12 15-14 20-12 19-4 7 16-6 31-12 37-13 43-14 46-13 45-11 45-9 39-6 38-4 14-1h61l31 3 28 5 25 7 21 8 17 8 16 10 13 10 10 9 8 10 8 14 5 13 3 15v22l-3 18-6 20-8 19-8 16-10 18-13 20-14 20-13 17-11 14-11 13-9 11-9 10-9 11-7 7-7 8-24 26-7 7-7 8-19 19-7 8-169 169-7 8-16 16-7 8-8 8-7 8-15 16-7 8-12 14-13 15-11 14-13 16-14 19-18 27-11 19-8 15-9 22h-1l1-12 6-27 8-28 13-38 15-37 16-36 14-30 12-24 10-21 10-19 16-31 12-22 13-25 12-22 30-56 18-34 21-41 13-27 14-32 11-29 7-24 3-17v-20l-3-10-5-8-5-4-9-4-4-1h-26l-24 5-36 12-433 164h-2l3-11 18-53 19-53 19-52 18-47 17-43 20-49 17-40 14-32 18-40 19-40 28-56 24-44 16-27 14-23 14-21 14-20 10-13 11-14 9-10 7-8 19-19 11-9 16-11 16-8 16-5z" fill="#3D2467"/>
<path transform="translate(1018,404)" d="m0 0h14l14 3 17 8 21 13 17 12 14 11 11 10 8 7 10 10 7 8 12 15 12 17 12 21 11 23 9 25 6 21 5 26 3 27v44l-3 26-3 14-2-3-5-16-9-17-11-13-13-9-11-5-11-3-7-1h-22l-18 3-21 6-24 10-24 12-27 16-21 14-14 10-17 13-13 11-11 9-17 16-5 4-5-5-28-14v-2l-7-2-10-6-18-10-8-4-15-8-9-5h-2l-4 7-8-4-2-2 1-5 1-4-8-4-5-2-9-5-4-2 13-28 30-60 24-44 16-27 14-23 14-21 14-20 10-13 11-14 9-10 7-8 19-19 11-9 16-11 16-8 16-5z" fill="#FE2500"/>
<path transform="translate(1179,825)" d="m0 0h53v1l-27 1-28 3-33 6-32 8-29 9-29 10-13 5-4-1-9-4-16-8 2-1v-2l38-9 42-8 33-5 38-4z" fill="#FE2500"/>
</svg>
