<?xml version="1.0" standalone="no"?>
<!DOCTYPE svg PUBLIC "-//W3C//DTD SVG 20010904//EN"
 "http://www.w3.org/TR/2001/REC-SVG-20010904/DTD/svg10.dtd">
<svg version="1.0" xmlns="http://www.w3.org/2000/svg"
 width="274.000000pt" height="307.000000pt" viewBox="0 0 274.000000 307.000000"
 preserveAspectRatio="xMidYMid meet">

<g transform="translate(0.000000,307.000000) scale(0.100000,-0.100000)"
fill="#000000" stroke="none">
<path d="M0 1535 l0 -1535 1370 0 1370 0 0 1535 0 1535 -1370 0 -1370 0 0
-1535z m1802 1126 l3 -249 280 112 c154 62 299 120 323 129 l42 17 0 -424 0
-423 -72 -24 c-59 -19 -93 -23 -173 -23 -113 2 -179 20 -271 75 -111 67 -224
219 -241 325 -3 19 -9 36 -12 38 -4 3 -110 -37 -236 -89 -199 -80 -231 -96
-239 -119 -6 -16 -6 -36 0 -53 10 -29 -13 -19 709 -312 132 -53 266 -114 298
-135 165 -110 260 -331 229 -533 -24 -151 -119 -297 -246 -378 -28 -17 -125
-64 -216 -105 -91 -40 -212 -95 -268 -121 -57 -27 -105 -49 -107 -49 -2 0
-102 -44 -222 -99 -121 -54 -229 -102 -241 -105 l-22 -7 0 250 c0 138 -1 251
-3 251 -5 0 -106 -41 -222 -89 -55 -23 -149 -62 -210 -86 -60 -23 -134 -52
-162 -64 l-53 -21 0 424 0 423 73 24 c89 29 232 32 316 6 88 -27 174 -82 240
-152 64 -69 97 -124 126 -215 10 -30 19 -56 20 -57 1 -2 105 39 231 91 199 81
230 97 238 120 6 16 6 36 0 53 -10 29 12 19 -599 268 -99 40 -220 89 -268 109
-114 46 -197 104 -250 171 -156 199 -167 450 -28 656 81 121 127 151 486 311
110 50 286 128 390 175 291 131 339 152 347 153 4 0 9 -112 10 -249z"/>
<path d="M1450 2617 c-113 -51 -299 -135 -415 -187 -230 -103 -275 -129 -330
-192 -147 -170 -139 -402 19 -566 22 -24 55 -52 71 -62 27 -16 323 -139 784
-324 90 -36 179 -77 198 -91 97 -75 97 -236 1 -308 -18 -14 -144 -69 -280
-123 l-248 -99 0 -177 c0 -98 3 -178 6 -178 5 0 703 312 824 368 67 31 159
121 193 188 57 112 59 262 6 369 -31 62 -110 149 -163 179 -22 13 -192 85
-376 159 -548 221 -564 228 -598 253 -95 73 -96 232 -2 306 17 14 143 69 281
124 137 54 251 105 254 112 7 18 -7 342 -14 342 -3 0 -98 -42 -211 -93z"/>
<path d="M2050 2371 l-245 -99 4 -38 c5 -58 56 -151 116 -211 91 -90 215 -133
339 -118 l56 7 0 279 c0 217 -3 279 -12 279 -7 0 -123 -45 -258 -99z"/>
<path d="M635 1112 l-30 -7 -3 -278 c-1 -170 1 -277 7 -277 5 0 43 13 83 29
82 32 285 112 367 143 l53 21 -4 42 c-19 165 -192 319 -370 329 -40 3 -86 2
-103 -2z"/>
</g>
</svg>
